<?xml version="1.0" standalone="no"?>
<!DOCTYPE svg PUBLIC "-//W3C//DTD SVG 20010904//EN"
 "http://www.w3.org/TR/2001/REC-SVG-20010904/DTD/svg10.dtd">
<svg version="1.0" xmlns="http://www.w3.org/2000/svg"
 width="1024.000000pt" height="1024.000000pt" viewBox="0 0 1024.000000 1024.000000"
 preserveAspectRatio="xMidYMid meet">

<g transform="translate(0.000000,1024.000000) scale(0.100000,-0.100000)"
fill="#000000" stroke="none">
<path d="M4140 8974 c-256 -55 -481 -186 -628 -367 l-61 -74 -88 -7 c-546 -44
-982 -427 -1067 -937 -5 -30 -16 -43 -74 -82 -193 -132 -336 -340 -404 -587
-20 -75 -23 -106 -22 -270 1 -163 4 -196 26 -278 l24 -93 -88 -75 c-200 -170
-342 -406 -394 -654 -22 -104 -24 -313 -5 -420 32 -176 111 -354 226 -509 l78
-103 -22 -37 c-139 -232 -186 -573 -114 -820 75 -261 293 -534 514 -646 l46
-24 7 -103 c12 -166 48 -310 108 -433 145 -293 413 -515 733 -610 71 -21 119
-28 230 -33 l140 -5 55 -85 c103 -159 269 -307 445 -395 421 -211 950 -134
1282 186 l73 70 72 -70 c159 -152 354 -250 583 -290 129 -22 338 -13 465 20
284 74 533 250 680 480 l55 86 103 0 c549 4 1037 448 1103 1004 6 51 13 111
15 135 5 39 9 44 57 69 123 62 270 195 358 324 60 88 123 230 150 334 20 78
23 113 23 260 -1 152 -4 181 -28 270 -14 55 -49 146 -76 203 -28 57 -50 108
-50 113 0 5 29 46 65 92 114 144 199 334 231 518 24 140 15 362 -20 489 -32
115 -118 291 -185 380 -48 64 -170 186 -244 246 l-38 31 20 74 c32 120 44 232
38 358 -16 329 -178 623 -447 808 -45 32 -56 45 -63 78 -66 302 -238 570 -464
723 -176 119 -410 198 -611 205 -82 3 -84 4 -110 38 -209 273 -525 429 -866
429 -140 0 -214 -12 -346 -56 -159 -53 -278 -122 -414 -241 l-59 -52 -66 61
c-151 138 -331 229 -539 273 -92 19 -322 19 -412 -1z m385 -409 c146 -39 295
-135 387 -250 l48 -59 0 -188 0 -189 -66 51 c-147 113 -352 190 -507 190 -77
0 -112 -14 -151 -60 -20 -24 -26 -43 -26 -77 0 -100 54 -149 198 -177 261 -52
430 -190 521 -424 25 -65 26 -74 26 -292 l0 -225 -32 -65 c-55 -113 -166 -204
-262 -217 -40 -6 -94 15 -186 72 -99 61 -220 3 -233 -110 -9 -81 69 -174 190
-230 145 -66 309 -56 465 30 l63 35 0 -199 0 -199 101 -93 100 -92 94 93 93
93 3 192 c2 107 7 196 11 200 4 4 23 -5 42 -20 46 -35 161 -74 239 -81 206
-19 436 118 437 261 0 23 -9 54 -20 73 -51 83 -146 94 -244 29 -31 -20 -76
-42 -100 -49 -116 -31 -274 83 -339 245 -19 47 -22 71 -22 242 1 170 3 198 24
265 34 112 85 195 170 281 103 104 207 156 364 184 139 25 197 76 197 175 0
47 -4 56 -38 90 -49 49 -92 61 -184 49 -166 -21 -324 -85 -455 -183 -39 -30
-74 -51 -77 -48 -10 9 -7 339 3 364 27 70 155 187 271 247 146 76 290 103 427
81 266 -42 480 -209 514 -399 13 -75 7 -256 -10 -311 -33 -106 -121 -199 -224
-235 -112 -39 -178 -75 -233 -126 -159 -151 -199 -391 -98 -591 14 -28 53 -79
87 -113 99 -100 185 -119 258 -58 74 63 78 166 9 228 -13 11 -36 38 -51 59
-36 49 -40 132 -10 183 23 37 90 85 144 102 72 24 132 65 213 145 148 148 220
312 235 539 4 71 10 132 13 135 3 2 48 -5 99 -17 166 -38 317 -126 420 -243
54 -62 107 -135 107 -147 0 -3 -55 -6 -122 -6 -108 0 -128 -3 -164 -22 -79
-42 -112 -130 -75 -205 34 -72 59 -81 256 -92 126 -8 280 -68 412 -162 117
-83 210 -213 267 -372 30 -85 31 -91 31 -267 0 -99 -3 -188 -7 -198 -7 -15
-13 -14 -60 16 -116 73 -231 107 -365 107 -148 0 -276 -53 -344 -143 -109
-146 -66 -317 81 -317 43 0 48 3 112 73 l68 72 88 -2 c67 -1 104 -7 162 -28
202 -73 401 -204 507 -335 65 -79 146 -240 170 -335 11 -48 17 -111 17 -200 0
-111 -4 -144 -27 -228 -45 -163 -140 -325 -226 -387 l-29 -20 -48 49 c-52 52
-113 77 -163 66 -101 -22 -150 -129 -102 -224 26 -50 78 -94 195 -164 109 -66
168 -132 205 -232 50 -134 53 -335 7 -481 -60 -189 -236 -373 -425 -444 -35
-13 -69 -32 -76 -44 -10 -15 -14 -60 -14 -168 0 -158 -5 -191 -53 -312 -112
-283 -379 -495 -665 -529 l-42 -5 6 107 c3 59 3 124 -1 145 -8 42 -55 100 -99
123 -46 23 -120 13 -157 -22 -40 -39 -49 -74 -48 -190 1 -152 -47 -272 -171
-428 -174 -219 -402 -326 -670 -315 -199 9 -350 76 -492 218 -128 127 -114
-36 -117 1352 l-3 1207 -78 71 c-127 116 -106 114 -213 17 l-93 -84 -5 -1219
-5 -1220 -37 -50 c-102 -138 -263 -242 -436 -279 -101 -21 -297 -14 -387 15
-119 38 -219 96 -307 179 -192 181 -288 375 -275 558 7 89 -4 131 -42 167 -30
29 -90 43 -135 32 -38 -9 -87 -56 -107 -101 -14 -32 -17 -63 -15 -159 l2 -119
-66 6 c-135 11 -321 108 -443 230 -79 79 -169 221 -207 325 -36 100 -53 241
-41 347 9 79 -5 123 -42 133 -12 3 -61 25 -109 49 -145 73 -291 228 -347 370
-58 149 -64 335 -15 481 49 146 102 210 245 295 139 82 179 131 179 219 0 82
-64 142 -151 141 -54 -1 -92 -19 -138 -67 -19 -20 -41 -36 -47 -36 -24 0 -114
101 -159 178 -91 154 -139 380 -116 541 45 303 222 541 521 699 139 74 237
104 338 106 l83 1 68 -74 69 -74 58 5 c52 4 61 9 90 42 57 65 54 147 -7 247
-62 101 -169 158 -312 166 -151 9 -295 -27 -420 -107 -26 -16 -48 -26 -51 -21
-3 4 -9 59 -15 123 -22 253 44 454 209 641 50 56 143 125 226 166 101 50 189
72 309 77 61 3 128 12 151 20 52 18 86 64 92 124 5 56 -14 99 -60 133 -54 40
-100 50 -219 45 -60 -2 -109 -2 -109 1 0 16 77 117 128 169 106 108 237 181
399 222 117 30 109 37 117 -89 8 -145 35 -244 98 -371 45 -90 65 -118 143
-196 70 -70 105 -98 160 -123 142 -66 158 -76 181 -111 56 -85 50 -152 -20
-229 -91 -97 -99 -170 -29 -243 95 -100 265 -16 357 174 51 107 65 207 42 308
-30 136 -94 241 -185 304 -22 15 -87 47 -144 71 -120 49 -153 69 -202 129 -71
86 -80 122 -80 301 l0 160 33 67 c74 151 269 278 477 312 53 8 208 -3 270 -19z"/>
<path d="M3454 7271 c-58 -14 -92 -48 -134 -134 -59 -119 -83 -246 -77 -407 5
-160 31 -245 94 -307 39 -39 47 -43 94 -43 121 0 168 86 129 239 -36 142 -24
253 41 383 45 90 51 153 19 205 -31 51 -103 79 -166 64z"/>
<path d="M6763 7260 c-96 -43 -108 -127 -37 -274 41 -83 47 -105 51 -178 3
-60 -1 -109 -15 -177 -11 -52 -18 -104 -16 -115 12 -64 19 -78 51 -107 34 -29
40 -31 95 -27 47 3 64 10 89 34 93 87 128 348 75 557 -45 178 -107 272 -193
296 -49 14 -51 14 -100 -9z"/>
<path d="M2734 7026 c-30 -30 -34 -40 -34 -87 0 -69 25 -113 75 -129 49 -16
98 -5 134 31 83 83 25 219 -93 219 -41 0 -53 -5 -82 -34z"/>
<path d="M7445 7050 c-62 -25 -91 -115 -58 -180 49 -95 193 -87 232 13 19 51
7 103 -34 144 -28 28 -40 33 -76 32 -24 0 -53 -4 -64 -9z"/>
<path d="M3705 6184 c-146 -26 -311 -95 -430 -179 -33 -24 -94 -78 -136 -121
-137 -142 -218 -292 -255 -474 -23 -113 -15 -351 15 -455 99 -348 349 -602
685 -699 254 -74 532 -51 774 64 104 50 136 72 362 248 238 186 221 168 189
195 -14 12 -81 68 -147 125 -67 56 -125 102 -130 102 -4 0 -49 -35 -100 -79
-165 -140 -307 -225 -435 -258 -52 -13 -108 -18 -202 -18 -116 0 -139 3 -212
28 -194 66 -338 218 -389 407 -22 85 -22 228 1 306 59 205 241 370 446 404
103 18 287 8 362 -19 88 -31 183 -84 277 -155 101 -76 550 -450 1106 -922 321
-272 419 -341 564 -398 94 -36 170 -54 295 -66 570 -58 1045 323 1116 896 11
85 10 115 -4 215 -35 242 -118 408 -289 577 -199 196 -441 292 -739 292 -206
0 -404 -58 -578 -170 -94 -60 -446 -337 -446 -351 0 -5 66 -65 147 -133 l147
-125 113 91 c263 212 411 278 628 278 189 0 311 -46 436 -163 59 -55 82 -86
114 -150 50 -101 64 -174 57 -297 -10 -190 -97 -339 -264 -450 -110 -73 -188
-95 -343 -95 -144 1 -218 16 -326 71 -108 54 -115 59 -1377 1123 -234 196
-365 275 -542 326 -164 47 -331 57 -490 29z"/>
<path d="M2430 5798 c-25 -12 -70 -47 -101 -78 -137 -135 -213 -434 -140 -542
35 -51 80 -78 129 -78 83 0 123 50 146 185 23 132 61 202 146 270 53 42 72 65
81 94 15 51 -1 100 -47 141 -31 27 -41 30 -102 30 -49 0 -79 -6 -112 -22z"/>
<path d="M7695 5800 c-16 -11 -38 -34 -47 -52 -37 -68 -15 -135 67 -196 27
-21 61 -55 76 -77 34 -51 69 -147 69 -188 0 -58 21 -111 60 -149 31 -32 44
-38 79 -38 23 0 55 7 71 15 52 27 100 111 100 174 0 51 -50 231 -82 298 -42
86 -128 179 -193 209 -65 31 -157 33 -200 4z"/>
<path d="M3720 5423 c-34 -7 -87 -48 -105 -83 -23 -45 -33 -141 -20 -193 33
-129 157 -189 240 -116 43 38 65 106 65 199 0 131 -76 212 -180 193z"/>
<path d="M6526 5420 c-89 -27 -131 -171 -91 -307 22 -74 69 -113 137 -113 46
0 54 4 93 43 116 115 82 338 -56 377 -39 11 -44 11 -83 0z"/>
<path d="M2721 4458 c-101 -54 -107 -182 -12 -245 90 -60 221 12 221 121 0
110 -111 176 -209 124z"/>
<path d="M7473 4464 c-99 -49 -101 -203 -3 -255 94 -51 210 19 210 127 0 35
-7 51 -32 80 -54 61 -114 78 -175 48z"/>
<path d="M2336 4097 c-138 -78 -103 -385 61 -538 43 -41 145 -99 173 -99 26 0
126 -42 148 -62 65 -60 79 -163 36 -268 -31 -76 -27 -115 17 -165 86 -98 231
-42 289 110 31 83 38 218 15 305 -49 192 -159 309 -340 366 -151 47 -179 77
-188 206 -6 91 -22 122 -78 150 -46 24 -86 22 -133 -5z"/>
<path d="M7855 4107 c-56 -26 -69 -51 -77 -148 -10 -133 -48 -178 -171 -208
-175 -42 -312 -183 -356 -365 -7 -27 -12 -88 -12 -135 0 -193 85 -331 203
-331 61 0 100 20 127 63 28 45 26 85 -4 157 -43 102 -26 203 43 262 18 15 74
39 129 57 180 55 267 141 317 310 22 76 21 204 -3 257 -34 75 -126 113 -196
81z"/>
<path d="M4300 4052 c-70 -35 -100 -124 -65 -191 8 -16 36 -45 63 -64 66 -49
102 -117 102 -191 0 -68 -16 -110 -76 -197 -56 -81 -64 -121 -35 -178 61 -119
207 -106 305 28 63 86 98 189 104 306 5 121 -8 192 -53 283 -88 174 -234 260
-345 204z"/>
<path d="M5863 4051 c-54 -25 -123 -89 -163 -152 -103 -159 -110 -379 -19
-566 34 -72 104 -148 154 -169 79 -33 159 -5 196 69 28 54 20 95 -29 160 -66
86 -86 134 -86 207 0 83 28 138 101 194 82 65 104 136 63 204 -43 70 -132 91
-217 53z"/>
<path d="M3283 4021 c-84 -39 -107 -129 -55 -212 89 -139 276 -217 496 -207
116 5 172 28 206 84 26 41 26 109 0 151 -31 52 -71 66 -200 73 -110 6 -119 8
-185 44 -128 71 -144 78 -182 82 -25 3 -53 -2 -80 -15z"/>
<path d="M6910 4026 c-19 -7 -64 -30 -100 -52 -89 -55 -119 -64 -222 -64 -131
0 -198 -34 -218 -112 -22 -79 31 -163 117 -187 55 -16 199 -13 289 4 156 30
290 119 336 222 34 77 5 147 -76 184 -48 22 -78 23 -126 5z"/>
<path d="M3477 3326 c-20 -7 -44 -20 -53 -27 -45 -37 -58 -131 -25 -185 19
-32 74 -64 109 -64 48 0 69 -18 106 -93 103 -208 226 -326 411 -393 l60 -22 7
-65 c22 -191 159 -381 336 -465 65 -31 84 -35 156 -36 74 -1 86 2 125 27 131
87 65 277 -97 277 -97 0 -200 94 -210 190 l-4 46 85 28 c118 39 238 121 273
188 34 65 7 158 -58 198 -53 32 -100 26 -219 -30 -121 -58 -190 -73 -278 -60
-143 20 -239 97 -319 256 -60 119 -103 170 -173 208 -63 35 -170 45 -232 22z"/>
<path d="M6642 3318 c-78 -29 -146 -103 -207 -223 -56 -111 -114 -176 -192
-218 -119 -64 -235 -57 -405 24 -112 53 -152 59 -208 31 -71 -35 -102 -131
-65 -201 36 -71 191 -172 300 -196 46 -10 50 -14 53 -42 6 -55 -58 -157 -118
-188 -14 -7 -58 -18 -98 -23 -111 -16 -162 -64 -162 -154 0 -83 83 -158 176
-158 56 0 148 26 208 58 71 37 194 164 233 237 36 70 73 184 73 229 0 43 6 48
85 79 165 63 287 178 380 357 41 79 64 111 79 115 11 2 38 7 58 10 103 16 150
162 75 233 -58 54 -170 67 -265 30z"/>
</g>
</svg>
